<?xml version="1.0" encoding="utf-8"?>
<!-- Generator: Adobe Illustrator 22.1.0, SVG Export Plug-In . SVG Version: 6.00 Build 0)  -->
<svg version="1.1" id="Слой_1" xmlns="http://www.w3.org/2000/svg" xmlns:xlink="http://www.w3.org/1999/xlink" x="0px" y="0px"
	 viewBox="0 0 512 512" style="enable-background:new 0 0 512 512;" xml:space="preserve">
<style type="text/css">
	.st0{fill:#FFFFFF;}
</style>
<path class="st0" d="M490.3,297.8C519.1,132.3,374.8-9.6,212.1,21.2C88.1-54.8-54.6,89.9,21.4,213.9
	C-8.2,379,136.1,522.5,300.4,491.4C424.8,566.5,566.7,421.4,490.3,297.8z M259.6,427.4c-68,0-135.9-30.8-135.5-84
	c0-16,12-30.8,28-30.8c40,0,39.6,59.6,103.2,59.6c44.8,0,60-24.4,60-41.6c0-61.6-192.7-24-192.7-139.5c0-62.8,51.2-106,131.9-101.2
	c76.8,4.4,121.9,38.4,126.3,70c2,20.8-11.6,36.8-35.2,36.8c-34.8,0-38.4-46.4-98-46.4c-27.2,0-49.6,11.2-49.6,35.6
	c0,51.2,191.5,21.6,191.5,133.9C388.3,385,336.3,427.4,259.6,427.4z"/>
</svg>
